<svg height="100%" width="100%" version="1.1" id="Layer_1" xmlns="http://www.w3.org/2000/svg"
	xmlns:xlink="http://www.w3.org/1999/xlink" viewBox="-20 0 400 400" xml:space="preserve">
	<path style="fill:#5A5A5A;" d="M180.623,173.783c-5.523,0-10,4.477-10,10v167.462c0,5.523,4.477,10,10,10s10-4.477,10-10V183.783
	C190.623,178.26,186.146,173.783,180.623,173.783z" />
	<!-- <polygon style="fill:#E6E6E6;" points="322.353,94.684 180.623,142.731 160.041,82.019 244.817,53.28 " /> -->
	<!-- <polygon style="fill:#D7D7D7;" points="180.623,142.731 160.041,82.019 181.622,74.703 " /> -->
	<!-- <polygon style="fill:#E3E3E3;" points="227.669,283.461 179.623,141.731 240.335,121.149 269.073,205.925 " /> -->
	<!-- <polygon style="fill:#A8A8A8;" points="133.576,0 181.623,141.731 120.911,162.312 92.172,77.536 " /> -->
	<path style="fill:#4A4A4A;" d="M180.623,173.783c-5.523,0-10,4.477-10,10v167.462c0,5.523,4.477,10,10,10V173.783z" />
	<!-- <polygon style="fill:#E8E8E8;" points="38.892,188.777 180.623,140.731 201.204,201.442 116.428,230.181 " /> -->
	<!-- <polygon style="fill:#DADADA;" points="38.892,188.777 180.623,140.731 180.623,208.419 116.428,230.181 " /> -->
	<circle style="fill:#BEBEBE;" cx="180.623" cy="141.731" r="26.232" />
	<path style="fill:#6E6E6E;"
		d="M180.623,167.963c-14.488,0-26.232-11.745-26.232-26.232s11.745-26.232,26.232-26.232V167.963z" />
</svg>